<svg width="360" height="45" viewBox="0 0 360 45" fill="none" xmlns="http://www.w3.org/2000/svg">
<path d="M6.75 18.8H4.4V35H0.25V-2.38419e-06H4.4V16.3L6.65 15.6L18.4 -2.38419e-06H23.2L11.5 15.05L9.4 16.7L11.95 18.7L24.75 35H19.5L6.75 18.8ZM45.9676 20.2L46.1176 17.1H45.9676L43.9176 20.3L32.6676 35H30.3676V10H34.3676V25.25L34.2176 28.2H34.4176L36.3676 25.1L47.6176 10H49.9676V35H45.9676V20.2ZM71.1125 13.5H63.8625C63.7625 14.9 63.6625 16.4167 63.5625 18.05C63.4625 19.65 63.3125 21.2667 63.1125 22.9C62.9125 24.5 62.6458 26.05 62.3125 27.55C61.9792 29.0167 61.5458 30.3167 61.0125 31.45C60.5125 32.5833 59.8792 33.5 59.1125 34.2C58.3792 34.8667 57.4958 35.2 56.4625 35.2C55.8292 35.2 55.2792 35.1667 54.8125 35.1C54.3458 35.0333 53.9292 34.9167 53.5625 34.75L54.1625 31.4C54.5625 31.5333 54.9958 31.6 55.4625 31.6C56.1292 31.6 56.7292 31.3167 57.2625 30.75C57.7958 30.1833 58.2625 29.1167 58.6625 27.55C59.0625 25.95 59.3958 23.75 59.6625 20.95C59.9292 18.15 60.1125 14.5 60.2125 10H75.1125V35H71.1125V13.5ZM98.409 20.2L98.559 17.1H98.409L96.359 20.3L85.109 35H82.809V10H86.809V25.25L86.659 28.2H86.859L88.809 25.1L100.059 10H102.409V35H98.409V20.2ZM130.754 20.15L131.054 15.4H130.804L129.004 19.25L122.954 29.05H121.554L115.254 19.25L113.604 15.4H113.404L113.804 20.1V35H110.104V10H114.054L121.054 21.2L122.504 24.1H122.604L124.104 21.1L130.654 10H134.654V35H130.754V20.15ZM141.93 11.85C143.197 11.0833 144.664 10.5167 146.33 10.15C148.03 9.78333 149.797 9.6 151.63 9.6C153.364 9.6 154.747 9.83333 155.78 10.3C156.847 10.7667 157.647 11.3833 158.18 12.15C158.747 12.8833 159.114 13.7 159.28 14.6C159.48 15.5 159.58 16.4 159.58 17.3C159.58 19.3 159.53 21.25 159.43 23.15C159.33 25.05 159.28 26.85 159.28 28.55C159.28 29.7833 159.33 30.95 159.43 32.05C159.53 33.15 159.714 34.1667 159.98 35.1H157.03L155.98 31.6H155.73C155.43 32.0667 155.047 32.5333 154.58 33C154.147 33.4333 153.614 33.8333 152.98 34.2C152.347 34.5333 151.614 34.8167 150.78 35.05C149.947 35.2833 148.997 35.4 147.93 35.4C146.864 35.4 145.864 35.2333 144.93 34.9C144.03 34.5667 143.247 34.1 142.58 33.5C141.914 32.8667 141.38 32.1167 140.98 31.25C140.614 30.3833 140.43 29.4 140.43 28.3C140.43 26.8333 140.73 25.6167 141.33 24.65C141.93 23.65 142.764 22.8667 143.83 22.3C144.93 21.7 146.23 21.2833 147.73 21.05C149.264 20.7833 150.947 20.65 152.78 20.65C153.247 20.65 153.697 20.65 154.13 20.65C154.597 20.65 155.064 20.6833 155.53 20.75C155.63 19.75 155.68 18.85 155.68 18.05C155.68 16.2167 155.314 14.9333 154.58 14.2C153.847 13.4667 152.514 13.1 150.58 13.1C150.014 13.1 149.397 13.15 148.73 13.25C148.097 13.3167 147.43 13.4333 146.73 13.6C146.064 13.7333 145.414 13.9167 144.78 14.15C144.18 14.35 143.647 14.5833 143.18 14.85L141.93 11.85ZM149.03 31.9C149.964 31.9 150.797 31.7833 151.53 31.55C152.264 31.2833 152.897 30.9667 153.43 30.6C153.964 30.2 154.397 29.7667 154.73 29.3C155.097 28.8333 155.364 28.3833 155.53 27.95V23.8C155.064 23.7667 154.58 23.75 154.08 23.75C153.614 23.7167 153.147 23.7 152.68 23.7C151.647 23.7 150.63 23.7667 149.63 23.9C148.664 24 147.797 24.2167 147.03 24.55C146.297 24.85 145.697 25.2833 145.23 25.85C144.797 26.3833 144.58 27.0667 144.58 27.9C144.58 29.0667 144.997 30.0333 145.83 30.8C146.664 31.5333 147.73 31.9 149.03 31.9ZM182.435 23.95H171.135V35H167.135V10H171.135V20.45H182.435V10H186.435V35H182.435V23.95ZM216.237 41.35H213.537L212.787 35H193.987L193.237 41.35H190.537V31.5H193.487C193.754 31.1333 194.104 30.4833 194.537 29.55C194.97 28.5833 195.387 27.25 195.787 25.55C196.22 23.8167 196.587 21.6833 196.887 19.15C197.22 16.5833 197.42 13.5333 197.487 10H212.587V31.5H216.237V41.35ZM208.587 31.5V13.5H201.087C201.02 14.9 200.904 16.4333 200.737 18.1C200.57 19.7333 200.337 21.3833 200.037 23.05C199.77 24.6833 199.42 26.2333 198.987 27.7C198.554 29.1667 198.054 30.4333 197.487 31.5H208.587ZM229.338 23.95L221.988 35H217.388L225.288 23.55L226.988 22.05L224.438 20.15L217.938 10H222.188L229.088 20.8H231.688V10H235.588V21.3L237.938 20.6L244.888 10H249.088L242.288 20.15L240.338 21.75L242.888 23.75L250.288 35H245.538L238.188 23.75H235.588V35H231.688V23.25L229.338 23.95ZM262.297 23.95L254.947 35H250.347L258.247 23.55L259.947 22.05L257.397 20.15L250.897 10H255.147L262.047 20.8H264.647V10H268.547V21.3L270.897 20.6L277.847 10H282.047L275.247 20.15L273.297 21.75L275.847 23.75L283.247 35H278.497L271.147 23.75H268.547V35H264.647V23.25L262.297 23.95ZM286.706 11.85C287.973 11.0833 289.439 10.5167 291.106 10.15C292.806 9.78333 294.573 9.6 296.406 9.6C298.139 9.6 299.523 9.83333 300.556 10.3C301.623 10.7667 302.423 11.3833 302.956 12.15C303.523 12.8833 303.889 13.7 304.056 14.6C304.256 15.5 304.356 16.4 304.356 17.3C304.356 19.3 304.306 21.25 304.206 23.15C304.106 25.05 304.056 26.85 304.056 28.55C304.056 29.7833 304.106 30.95 304.206 32.05C304.306 33.15 304.489 34.1667 304.756 35.1H301.806L300.756 31.6H300.506C300.206 32.0667 299.823 32.5333 299.356 33C298.923 33.4333 298.389 33.8333 297.756 34.2C297.123 34.5333 296.389 34.8167 295.556 35.05C294.723 35.2833 293.773 35.4 292.706 35.4C291.639 35.4 290.639 35.2333 289.706 34.9C288.806 34.5667 288.023 34.1 287.356 33.5C286.689 32.8667 286.156 32.1167 285.756 31.25C285.389 30.3833 285.206 29.4 285.206 28.3C285.206 26.8333 285.506 25.6167 286.106 24.65C286.706 23.65 287.539 22.8667 288.606 22.3C289.706 21.7 291.006 21.2833 292.506 21.05C294.039 20.7833 295.723 20.65 297.556 20.65C298.023 20.65 298.473 20.65 298.906 20.65C299.373 20.65 299.839 20.6833 300.306 20.75C300.406 19.75 300.456 18.85 300.456 18.05C300.456 16.2167 300.089 14.9333 299.356 14.2C298.623 13.4667 297.289 13.1 295.356 13.1C294.789 13.1 294.173 13.15 293.506 13.25C292.873 13.3167 292.206 13.4333 291.506 13.6C290.839 13.7333 290.189 13.9167 289.556 14.15C288.956 14.35 288.423 14.5833 287.956 14.85L286.706 11.85ZM293.806 31.9C294.739 31.9 295.573 31.7833 296.306 31.55C297.039 31.2833 297.673 30.9667 298.206 30.6C298.739 30.2 299.173 29.7667 299.506 29.3C299.873 28.8333 300.139 28.3833 300.306 27.95V23.8C299.839 23.7667 299.356 23.75 298.856 23.75C298.389 23.7167 297.923 23.7 297.456 23.7C296.423 23.7 295.406 23.7667 294.406 23.9C293.439 24 292.573 24.2167 291.806 24.55C291.073 24.85 290.473 25.2833 290.006 25.85C289.573 26.3833 289.356 27.0667 289.356 27.9C289.356 29.0667 289.773 30.0333 290.606 30.8C291.439 31.5333 292.506 31.9 293.806 31.9ZM311.911 10H314.661L315.411 13H315.611C316.377 11.8333 317.361 10.95 318.561 10.35C319.794 9.71667 321.194 9.4 322.761 9.4C326.094 9.4 328.577 10.3833 330.211 12.35C331.844 14.3167 332.661 17.5333 332.661 22C332.661 24.1 332.377 26 331.811 27.7C331.277 29.3667 330.511 30.7833 329.511 31.95C328.511 33.1167 327.294 34.0167 325.861 34.65C324.461 35.2833 322.894 35.6 321.161 35.6C319.927 35.6 318.944 35.5167 318.211 35.35C317.511 35.2167 316.744 34.9667 315.911 34.6V45H311.911V10ZM322.011 12.9C320.311 12.9 318.961 13.35 317.961 14.25C316.994 15.1167 316.311 16.45 315.911 18.25V30.65C316.511 31.1167 317.194 31.4833 317.961 31.75C318.727 31.9833 319.744 32.1 321.011 32.1C323.311 32.1 325.127 31.25 326.461 29.55C327.827 27.8167 328.511 25.2833 328.511 21.95C328.511 20.5833 328.394 19.35 328.161 18.25C327.927 17.1167 327.544 16.1667 327.011 15.4C326.511 14.6 325.844 13.9833 325.011 13.55C324.211 13.1167 323.211 12.9 322.011 12.9ZM337.561 22.5C337.561 18.2667 338.495 15.0333 340.361 12.8C342.261 10.5333 344.978 9.4 348.511 9.4C350.378 9.4 351.995 9.71667 353.361 10.35C354.761 10.95 355.911 11.8333 356.811 13C357.711 14.1333 358.378 15.5167 358.811 17.15C359.245 18.75 359.461 20.5333 359.461 22.5C359.461 26.7333 358.511 29.9833 356.611 32.25C354.745 34.4833 352.045 35.6 348.511 35.6C346.645 35.6 345.011 35.3 343.611 34.7C342.245 34.0667 341.111 33.1833 340.211 32.05C339.311 30.8833 338.645 29.5 338.211 27.9C337.778 26.2667 337.561 24.4667 337.561 22.5ZM341.711 22.5C341.711 23.7667 341.828 24.9833 342.061 26.15C342.328 27.3167 342.728 28.3333 343.261 29.2C343.795 30.0667 344.495 30.7667 345.361 31.3C346.228 31.8333 347.278 32.1 348.511 32.1C353.045 32.1333 355.311 28.9333 355.311 22.5C355.311 21.2 355.178 19.9667 354.911 18.8C354.678 17.6333 354.295 16.6167 353.761 15.75C353.228 14.8833 352.528 14.2 351.661 13.7C350.795 13.1667 349.745 12.9 348.511 12.9C343.978 12.8667 341.711 16.0667 341.711 22.5Z" fill="#386693"/>
</svg>
