<svg width="96" height="46" viewBox="0 0 96 46" fill="none" xmlns="http://www.w3.org/2000/svg">
<path d="M7.09437 19.1102L4.74449 19.1335L4.90505 35.3327L0.755248 35.3738L0.408366 0.375547L4.55816 0.334417L4.71971 16.6336L6.96266 15.9114L18.5575 0.195664L23.3572 0.148092L11.807 15.3133L9.72343 16.984L12.2931 18.9587L25.254 35.131L20.0043 35.183L7.09437 19.1102ZM38.1338 26.2029L39.5813 30.9888L39.8313 30.9863L40.8831 26.1257L45.5728 9.9284L49.6226 9.88826L42.4455 32.4105C41.8951 34.0494 41.3441 35.6382 40.7927 37.1771C40.2746 38.7157 39.6881 40.0882 39.0334 41.2947C38.3786 42.5013 37.6381 43.4587 36.8117 44.1669C35.9857 44.9085 35.0227 45.2847 33.9228 45.2956C32.7228 45.3075 31.7379 45.1506 30.968 44.8249L31.6338 41.3681C32.0687 41.5305 32.4862 41.6097 32.8862 41.6057C33.8195 41.5964 34.7145 41.0875 35.5712 40.079C36.4282 39.1038 37.1282 37.4134 37.671 35.0079L27.3737 10.1088L31.9735 10.0632L38.1338 26.2029ZM60.3494 23.5326L58.0495 23.5554L58.161 34.8049L54.1612 34.8445L53.9134 9.84573L57.9132 9.80609L58.0252 21.1055L60.1682 20.3843L68.0628 9.70549L72.4125 9.66238L64.7625 19.7887L62.679 21.4594L65.2987 23.4336L73.7603 34.6502L68.8105 34.6993L60.3494 23.5326ZM77.4076 11.463C78.6666 10.6838 80.1276 10.1026 81.7905 9.71944C83.4868 9.33594 85.2516 9.1351 87.0848 9.11693C88.8181 9.09976 90.2036 9.31937 91.2415 9.77577C92.3128 10.2318 93.1189 10.8405 93.6598 11.6019C94.2337 12.3296 94.6084 13.1426 94.784 14.0409C94.9929 14.9388 95.1018 15.8378 95.1107 16.7378C95.1306 18.7377 95.0999 20.6881 95.0187 22.589C94.9376 24.4899 94.9054 26.2903 94.9222 27.9902C94.9345 29.2235 94.996 30.3896 95.1069 31.4885C95.2178 32.5875 95.4112 33.6023 95.6871 34.5329L92.7373 34.5622L91.6526 31.0727L91.4026 31.0752C91.1073 31.5448 90.7286 32.0153 90.2666 32.4865C89.8376 32.9242 89.3082 33.3294 88.6785 33.7023C88.0486 34.0419 87.3181 34.3325 86.4871 34.5741C85.6561 34.8157 84.7073 34.9418 83.6407 34.9523C82.5741 34.9629 81.5725 34.8062 80.6359 34.4821C79.7326 34.1577 78.9447 33.6988 78.2721 33.1055C77.5992 32.4788 77.0585 31.7341 76.6499 30.8714C76.2747 30.0084 76.0816 29.027 76.0707 27.927C76.0562 26.4604 76.3441 25.2408 76.9345 24.2683C77.5245 23.2624 78.3501 22.4708 79.4111 21.8936C80.5051 21.2827 81.8009 20.8532 83.2985 20.605C84.8291 20.3232 86.511 20.1732 88.3443 20.155C88.8109 20.1504 89.2609 20.1459 89.6942 20.1416C90.1608 20.137 90.6278 20.1657 91.0951 20.2277C91.1852 19.2268 91.2263 18.3263 91.2184 17.5264C91.2002 15.6931 90.8208 14.4135 90.0803 13.6875C89.3397 12.9614 88.0028 12.608 86.0695 12.6272C85.5029 12.6328 84.8868 12.6889 84.2211 12.7955C83.5885 12.8684 82.923 12.9917 82.2247 13.1653C81.5594 13.3052 80.9112 13.495 80.2802 13.7346C79.6822 13.9405 79.1513 14.1791 78.6873 14.4504L77.4076 11.463ZM84.7059 31.4416C85.6392 31.4324 86.4714 31.3074 87.2024 31.0668C87.933 30.7929 88.5632 30.47 89.0928 30.0981C89.6222 29.6928 90.0512 29.2552 90.3799 28.7852C90.7419 28.315 91.0041 27.8623 91.1665 27.4274L91.1253 23.2776C90.6584 23.2489 90.1749 23.237 89.6749 23.242C89.208 23.2133 88.7411 23.2012 88.2745 23.2058C87.2412 23.2161 86.2253 23.2928 85.2266 23.4361C84.261 23.5456 83.3965 23.7709 82.6332 24.1118C81.9029 24.419 81.3072 24.8583 80.8462 25.4296C80.4181 25.9672 80.2083 26.6526 80.2165 27.4859C80.2281 28.6525 80.6543 29.615 81.4952 30.3734C82.3358 31.0984 83.406 31.4545 84.7059 31.4416Z" fill="#EDE2E5"/>
</svg>
