<svg width="171" height="48" viewBox="0 0 171 48" fill="none" xmlns="http://www.w3.org/2000/svg">
<path d="M5.5 17.25H19.9C19.7333 15.2167 19.3333 13.4333 18.7 11.9C18.0667 10.3333 17.25 9.05 16.25 8.05C15.25 7.01667 14.0833 6.26667 12.75 5.8C11.45 5.33333 10.0333 5.1 8.5 5.1C6.93333 5.1 5.53333 5.23333 4.3 5.5C3.1 5.76666 2.11667 6.13333 1.35 6.6L0.25 3.35C1.28333 2.75 2.56667 2.28333 4.1 1.95C5.63333 1.58333 7.26667 1.4 9 1.4C11.1333 1.4 13.1167 1.73333 14.95 2.4C16.7833 3.06666 18.3667 4.13333 19.7 5.6C21.0667 7.03333 22.1333 8.9 22.9 11.2C23.6667 13.5 24.05 16.2667 24.05 19.5C24.05 22.7667 23.6167 25.55 22.75 27.85C21.8833 30.15 20.7 32.0333 19.2 33.5C17.7333 34.9333 16.0167 35.9833 14.05 36.65C12.1167 37.2833 10.0833 37.6 7.95 37.6C6.28333 37.6 4.8 37.4833 3.5 37.25C2.23333 37.0167 1.15 36.7167 0.25 36.35L1.35 32.7C2.11667 33.0667 3.11667 33.3667 4.35 33.6C5.58333 33.8 6.86667 33.9 8.2 33.9C9.53333 33.9 10.8667 33.7 12.2 33.3C13.5667 32.8667 14.8 32.1333 15.9 31.1C17 30.0667 17.9167 28.7167 18.65 27.05C19.3833 25.3833 19.8167 23.35 19.95 20.95H5.5V17.25ZM42.5949 15.5H35.3449C35.2449 16.9 35.1449 18.4167 35.0449 20.05C34.9449 21.65 34.7949 23.2667 34.5949 24.9C34.3949 26.5 34.1283 28.05 33.7949 29.55C33.4616 31.0167 33.0283 32.3167 32.4949 33.45C31.9949 34.5833 31.3616 35.5 30.5949 36.2C29.8616 36.8667 28.9783 37.2 27.9449 37.2C27.3116 37.2 26.7616 37.1667 26.2949 37.1C25.8283 37.0333 25.4116 36.9167 25.0449 36.75L25.6449 33.4C26.0449 33.5333 26.4783 33.6 26.9449 33.6C27.6116 33.6 28.2116 33.3167 28.7449 32.75C29.2783 32.1833 29.7449 31.1167 30.1449 29.55C30.5449 27.95 30.8783 25.75 31.1449 22.95C31.4116 20.15 31.5949 16.5 31.6949 12H46.5949V37H42.5949V15.5ZM58.2914 33.5C59.5247 33.7 60.7081 33.8 61.8414 33.8C63.9414 33.8 65.4914 33.4 66.4914 32.6C67.4914 31.7667 67.9914 30.6 67.9914 29.1C67.9914 27.7667 67.5081 26.6667 66.5414 25.8C65.5747 24.9333 64.0581 24.5 61.9914 24.5C61.4247 24.5 60.8081 24.5167 60.1414 24.55C59.4747 24.5833 58.8581 24.6833 58.2914 24.85V33.5ZM58.2914 21.55C59.0914 21.4167 59.8581 21.3333 60.5914 21.3C61.3247 21.2333 62.0247 21.2 62.6914 21.2C64.4247 21.2 65.8914 21.4 67.0914 21.8C68.2914 22.1667 69.2581 22.6833 69.9914 23.35C70.7581 24.0167 71.3081 24.8167 71.6414 25.75C71.9747 26.65 72.1414 27.6167 72.1414 28.65C72.1414 31.6833 71.2247 33.8833 69.3914 35.25C67.5914 36.6167 64.7747 37.3 60.9414 37.3C58.8081 37.3 56.5914 37.2 54.2914 37V12H58.2914V21.55ZM79.7848 16.45C80.8848 14.85 82.1014 13.7333 83.4348 13.1C84.7681 12.4333 86.4348 12.1 88.4348 12.1C91.5014 12.1 93.8514 13.1 95.4848 15.1C97.1514 17.1 97.9848 20.05 97.9848 23.95C97.9848 28.45 97.0181 31.85 95.0848 34.15C93.1848 36.45 90.5181 37.6 87.0848 37.6C83.4181 37.6 80.6681 36.3333 78.8348 33.8C77.0014 31.2667 76.0848 27.2833 76.0848 21.85C76.0848 18.9833 76.2181 16.5333 76.4848 14.5C76.7848 12.4667 77.2014 10.75 77.7348 9.35C78.3014 7.95 78.9681 6.83333 79.7348 6C80.5348 5.16667 81.4181 4.51666 82.3848 4.05C83.3848 3.55 84.4681 3.2 85.6348 3C86.8014 2.8 88.0514 2.63333 89.3848 2.5C91.1181 2.33333 92.4681 2.15 93.4348 1.95C94.4348 1.71667 95.2348 1.31667 95.8348 0.749999L96.2848 4.35C95.9514 4.65 95.5848 4.9 95.1848 5.1C94.7848 5.3 94.3014 5.46667 93.7348 5.6C93.1681 5.73333 92.4848 5.85 91.6848 5.95C90.9181 6.05 90.0181 6.13333 88.9848 6.2C87.5514 6.3 86.2848 6.48333 85.1848 6.75C84.1181 6.98333 83.1848 7.46666 82.3848 8.2C81.6181 8.9 81.0014 9.91667 80.5348 11.25C80.1014 12.55 79.8014 14.2833 79.6348 16.45H79.7848ZM80.2348 24.55C80.2348 25.8167 80.3681 27.0333 80.6348 28.2C80.9014 29.3667 81.3014 30.4 81.8348 31.3C82.4014 32.1667 83.1181 32.85 83.9848 33.35C84.8514 33.85 85.8681 34.1 87.0348 34.1C89.3348 34.1 91.0348 33.2833 92.1348 31.65C93.2681 29.9833 93.8348 27.5333 93.8348 24.3C93.8348 23.0333 93.7181 21.8667 93.4848 20.8C93.2514 19.7333 92.8848 18.8167 92.3848 18.05C91.8848 17.25 91.2514 16.65 90.4848 16.25C89.7181 15.8167 88.8014 15.6 87.7348 15.6C85.1348 15.5667 83.2348 16.3333 82.0348 17.9C80.8348 19.4333 80.2348 21.65 80.2348 24.55ZM104.291 12H107.041L107.791 15H107.991C108.758 13.8333 109.741 12.95 110.941 12.35C112.175 11.7167 113.575 11.4 115.141 11.4C118.475 11.4 120.958 12.3833 122.591 14.35C124.225 16.3167 125.041 19.5333 125.041 24C125.041 26.1 124.758 28 124.191 29.7C123.658 31.3667 122.891 32.7833 121.891 33.95C120.891 35.1167 119.675 36.0167 118.241 36.65C116.841 37.2833 115.275 37.6 113.541 37.6C112.308 37.6 111.325 37.5167 110.591 37.35C109.891 37.2167 109.125 36.9667 108.291 36.6V47H104.291V12ZM114.391 14.9C112.691 14.9 111.341 15.35 110.341 16.25C109.375 17.1167 108.691 18.45 108.291 20.25V32.65C108.891 33.1167 109.575 33.4833 110.341 33.75C111.108 33.9833 112.125 34.1 113.391 34.1C115.691 34.1 117.508 33.25 118.841 31.55C120.208 29.8167 120.891 27.2833 120.891 23.95C120.891 22.5833 120.775 21.35 120.541 20.25C120.308 19.1167 119.925 18.1667 119.391 17.4C118.891 16.6 118.225 15.9833 117.391 15.55C116.591 15.1167 115.591 14.9 114.391 14.9ZM138.106 28.2L139.506 33H139.756L140.856 28.15L145.706 12H149.756L142.356 34.45C141.79 36.0833 141.223 37.6667 140.656 39.2C140.123 40.7333 139.523 42.1 138.856 43.3C138.19 44.5 137.44 45.45 136.606 46.15C135.773 46.8833 134.806 47.25 133.706 47.25C132.506 47.25 131.523 47.0833 130.756 46.75L131.456 43.3C131.89 43.4667 132.306 43.55 132.706 43.55C133.64 43.55 134.54 43.05 135.406 42.05C136.273 41.0833 136.99 39.4 137.556 37L127.506 12H132.106L138.106 28.2ZM170.804 35.35C169.804 36.0833 168.621 36.6333 167.254 37C165.888 37.4 164.454 37.6 162.954 37.6C161.021 37.6 159.388 37.3 158.054 36.7C156.721 36.0667 155.621 35.1833 154.754 34.05C153.921 32.8833 153.304 31.5 152.904 29.9C152.538 28.2667 152.354 26.4667 152.354 24.5C152.354 20.2667 153.288 17.0333 155.154 14.8C157.021 12.5333 159.704 11.4 163.204 11.4C164.804 11.4 166.154 11.5333 167.254 11.8C168.388 12.0333 169.404 12.3833 170.304 12.85L169.154 16.3C168.388 15.8667 167.538 15.5333 166.604 15.3C165.671 15.0333 164.671 14.9 163.604 14.9C158.871 14.9 156.504 18.1 156.504 24.5C156.504 25.7667 156.621 26.9833 156.854 28.15C157.121 29.2833 157.538 30.3 158.104 31.2C158.704 32.0667 159.471 32.7667 160.404 33.3C161.371 33.8333 162.554 34.1 163.954 34.1C165.154 34.1 166.221 33.9167 167.154 33.55C168.121 33.1833 168.904 32.7667 169.504 32.3L170.804 35.35Z" fill="#F7EAED"/>
</svg>
