<svg width="132" height="47" viewBox="0 0 132 47" fill="none" xmlns="http://www.w3.org/2000/svg">
<path d="M15.45 32.1C14.8833 32.2 14.2167 32.2667 13.45 32.3C12.7167 32.3333 12.0167 32.35 11.35 32.35C9.78333 32.35 8.3 32.0833 6.9 31.55C5.53333 31.0167 4.33333 30.1833 3.3 29.05C2.3 27.9167 1.5 26.4833 0.9 24.75C0.333333 22.9833 0.0500001 20.9 0.0500001 18.5C0.0500001 16.2333 0.333333 14.2167 0.9 12.45C1.5 10.65 2.33333 9.13333 3.4 7.9C4.5 6.66666 5.8 5.73333 7.3 5.1C8.8 4.43333 10.4667 4.1 12.3 4.1C12.7333 4.1 13.2667 4.11667 13.9 4.15C14.5667 4.18333 15.0833 4.23333 15.45 4.3V-1.43051e-06H19.55V4.45C20.15 4.28333 20.85 4.18333 21.65 4.15C22.4833 4.11667 23.1667 4.1 23.7 4.1C25.3 4.1 26.7833 4.4 28.15 5C29.5167 5.56667 30.7 6.43333 31.7 7.6C32.7333 8.73333 33.5333 10.1833 34.1 11.95C34.6667 13.6833 34.95 15.7 34.95 18C34.95 20.3667 34.6167 22.45 33.95 24.25C33.3167 26.05 32.45 27.55 31.35 28.75C30.25 29.95 28.9667 30.85 27.5 31.45C26.0333 32.05 24.4667 32.35 22.8 32.35C22.4333 32.35 21.8833 32.3333 21.15 32.3C20.45 32.2333 19.9167 32.1333 19.55 32V37H15.45V32.1ZM23.1 7.6C22.6333 7.6 22.0333 7.61667 21.3 7.65C20.5667 7.68333 19.9667 7.78333 19.5 7.95V28.7C19.8333 28.7667 20.2667 28.8167 20.8 28.85C21.3667 28.85 21.9167 28.85 22.45 28.85C23.5833 28.85 24.6333 28.6333 25.6 28.2C26.6 27.7667 27.4667 27.1 28.2 26.2C28.9667 25.3 29.5667 24.1667 30 22.8C30.4333 21.4333 30.65 19.8333 30.65 18C30.65 16.4667 30.4667 15.0667 30.1 13.8C29.7667 12.5 29.2667 11.3833 28.6 10.45C27.9667 9.51666 27.1833 8.81666 26.25 8.35C25.3167 7.85 24.2667 7.6 23.1 7.6ZM12.1 28.85C12.2667 28.85 12.4833 28.85 12.75 28.85C13.05 28.85 13.3667 28.85 13.7 28.85C14.0333 28.8167 14.35 28.7833 14.65 28.75C14.9833 28.6833 15.2667 28.6167 15.5 28.55V7.8C15.1 7.73333 14.6 7.68333 14 7.65C13.4333 7.61667 12.9167 7.6 12.45 7.6C11.3167 7.6 10.25 7.83333 9.25 8.3C8.28333 8.73333 7.43333 9.41667 6.7 10.35C5.96667 11.25 5.38333 12.3833 4.95 13.75C4.55 15.1167 4.35 16.7 4.35 18.5C4.35 20.1 4.53333 21.55 4.9 22.85C5.26667 24.1167 5.78333 25.2 6.45 26.1C7.15 27 7.96667 27.6833 8.9 28.15C9.86667 28.6167 10.9333 28.85 12.1 28.85ZM47.4324 27.2L48.8324 32H49.0824L50.1824 27.15L55.0324 11H59.0824L51.6824 33.45C51.1158 35.0833 50.5491 36.6667 49.9824 38.2C49.4491 39.7333 48.8491 41.1 48.1824 42.3C47.5158 43.5 46.7658 44.45 45.9324 45.15C45.0991 45.8833 44.1324 46.25 43.0324 46.25C41.8324 46.25 40.8491 46.0833 40.0824 45.75L40.7824 42.3C41.2158 42.4667 41.6324 42.55 42.0324 42.55C42.9658 42.55 43.8658 42.05 44.7324 41.05C45.5991 40.0833 46.3158 38.4 46.8824 36L36.8324 11H41.4324L47.4324 27.2ZM84.7898 42.35H82.0898L81.3398 36H62.5398L61.7898 42.35H59.0898V32.5H62.0398C62.3065 32.1333 62.6565 31.4833 63.0898 30.55C63.5232 29.5833 63.9398 28.25 64.3398 26.55C64.7732 24.8167 65.1398 22.6833 65.4398 20.15C65.7732 17.5833 65.9732 14.5333 66.0398 11H81.1398V32.5H84.7898V42.35ZM77.1398 32.5V14.5H69.6398C69.5732 15.9 69.4565 17.4333 69.2898 19.1C69.1232 20.7333 68.8898 22.3833 68.5898 24.05C68.3232 25.6833 67.9732 27.2333 67.5398 28.7C67.1065 30.1667 66.6065 31.4333 66.0398 32.5H77.1398ZM92.1406 24.85V21.6H95.6406C96.2406 21.6 96.824 21.5 97.3906 21.3C97.9906 21.1 98.524 20.8333 98.9906 20.5C99.4573 20.1333 99.824 19.7167 100.091 19.25C100.391 18.75 100.541 18.2333 100.541 17.7C100.541 16.4 100.091 15.4833 99.1906 14.95C98.2906 14.4167 96.9406 14.15 95.1406 14.15C93.8406 14.15 92.6406 14.35 91.5406 14.75C90.474 15.15 89.6406 15.5333 89.0406 15.9L87.8906 12.8C88.8906 12.2333 90.0573 11.7333 91.3906 11.3C92.7573 10.8667 94.374 10.65 96.2406 10.65C101.774 10.65 104.541 12.7 104.541 16.8C104.541 17.9667 104.157 19.1167 103.391 20.25C102.657 21.35 101.591 22.1333 100.191 22.6V22.8C102.157 23.1667 103.524 23.8667 104.291 24.9C105.091 25.9333 105.491 27.3 105.491 29C105.491 30.0667 105.274 31.05 104.841 31.95C104.407 32.85 103.757 33.6333 102.891 34.3C102.024 34.9667 100.924 35.5 99.5906 35.9C98.2906 36.2667 96.774 36.45 95.0406 36.45C93.3406 36.45 91.924 36.3 90.7906 36C89.6906 35.7 88.6906 35.3333 87.7906 34.9L88.9406 31.6C89.7073 32.0333 90.624 32.3667 91.6906 32.6C92.7906 32.8333 93.974 32.95 95.2406 32.95C97.274 32.95 98.824 32.6 99.8906 31.9C100.957 31.2 101.491 30.1333 101.491 28.7C101.491 27.5 100.991 26.5667 99.9906 25.9C98.9906 25.2 97.3406 24.85 95.0406 24.85H92.1406ZM127.411 21.2L127.561 18.1H127.411L125.361 21.3L114.111 36H111.811V11H115.811V26.25L115.661 29.2H115.861L117.811 26.1L129.061 11H131.411V36H127.411V21.2Z" fill="#0D5A7B"/>
</svg>
