<svg width="134" height="47" viewBox="0 0 134 47" fill="none" xmlns="http://www.w3.org/2000/svg">
<path d="M20.9 26.3H8L4.5 36H0.4L13.65 0.449999H15.55L28.85 36H24.5L20.9 26.3ZM9.35 22.7H19.65L15.75 12.05L14.5 6.75H14.45L13.2 12.15L9.35 22.7ZM43.7133 36.2C43.1466 36.4 42.5466 36.5167 41.9133 36.55C41.3133 36.5833 40.7633 36.6 40.2633 36.6C37.2299 36.6 34.8966 35.5333 33.2633 33.4C31.6299 31.2667 30.8133 27.9667 30.8133 23.5C30.8133 19.2333 31.7133 16.0167 33.5133 13.85C35.3133 11.6833 37.9133 10.6 41.3133 10.6C42.2466 10.6 43.0466 10.6667 43.7133 10.8V0.999998H47.5133V10.85C48.1133 10.75 48.6466 10.6833 49.1133 10.65C49.5799 10.6167 50.0299 10.6 50.4633 10.6C53.7633 10.6 56.2466 11.5667 57.9133 13.5C59.5799 15.4 60.4133 18.5667 60.4133 23C60.4133 25.1 60.1799 27 59.7133 28.7C59.2799 30.3667 58.6299 31.7833 57.7633 32.95C56.8966 34.1167 55.83 35.0167 54.5633 35.65C53.3299 36.2833 51.8966 36.6 50.2633 36.6C49.9633 36.6 49.5133 36.5667 48.9133 36.5C48.3466 36.4667 47.8799 36.3833 47.5133 36.25V46H43.7133V36.2ZM49.7133 13.9C49.3133 13.9 48.9466 13.9167 48.6133 13.95C48.3133 13.95 47.9299 14.0167 47.4633 14.15V33.15C47.7966 33.2167 48.1633 33.2667 48.5633 33.3C48.9966 33.3 49.4633 33.3 49.9633 33.3C52.0966 33.3 53.6966 32.4167 54.7633 30.65C55.8633 28.8833 56.4133 26.3333 56.4133 23C56.4133 20.1667 55.9133 17.95 54.9133 16.35C53.9466 14.7167 52.2133 13.9 49.7133 13.9ZM41.2633 33.3C41.6633 33.3 42.0633 33.2833 42.4633 33.25C42.8633 33.2167 43.2966 33.15 43.7633 33.05V14.1C43.3633 14.0333 42.9799 13.9833 42.6133 13.95C42.2799 13.9167 41.8633 13.9 41.3633 13.9C39.2966 13.9 37.6799 14.6833 36.5133 16.25C35.3799 17.7833 34.8133 20.2 34.8133 23.5C34.8133 24.9 34.9299 26.2 35.1633 27.4C35.4299 28.6 35.8299 29.65 36.3633 30.55C36.8966 31.4167 37.5633 32.1 38.3633 32.6C39.1966 33.0667 40.1633 33.3 41.2633 33.3ZM73.2117 27.2L74.6117 32H74.8617L75.9617 27.15L80.8117 11H84.8617L77.4617 33.45C76.8951 35.0833 76.3284 36.6667 75.7617 38.2C75.2284 39.7333 74.6284 41.1 73.9617 42.3C73.2951 43.5 72.5451 44.45 71.7117 45.15C70.8784 45.8833 69.9117 46.25 68.8117 46.25C67.6117 46.25 66.6284 46.0833 65.8617 45.75L66.5617 42.3C66.9951 42.4667 67.4117 42.55 67.8117 42.55C68.7451 42.55 69.6451 42.05 70.5117 41.05C71.3784 40.0833 72.0951 38.4 72.6617 36L62.6117 11H67.2117L73.2117 27.2ZM104.453 24.95H93.1527V36H89.1527V11H93.1527V21.45H104.453V11H108.453V36H104.453V24.95ZM115.755 12.85C117.021 12.0833 118.488 11.5167 120.155 11.15C121.855 10.7833 123.621 10.6 125.455 10.6C127.188 10.6 128.571 10.8333 129.605 11.3C130.671 11.7667 131.471 12.3833 132.005 13.15C132.571 13.8833 132.938 14.7 133.105 15.6C133.305 16.5 133.405 17.4 133.405 18.3C133.405 20.3 133.355 22.25 133.255 24.15C133.155 26.05 133.105 27.85 133.105 29.55C133.105 30.7833 133.155 31.95 133.255 33.05C133.355 34.15 133.538 35.1667 133.805 36.1H130.855L129.805 32.6H129.555C129.255 33.0667 128.871 33.5333 128.405 34C127.971 34.4333 127.438 34.8333 126.805 35.2C126.171 35.5333 125.438 35.8167 124.605 36.05C123.771 36.2833 122.821 36.4 121.755 36.4C120.688 36.4 119.688 36.2333 118.755 35.9C117.855 35.5667 117.071 35.1 116.405 34.5C115.738 33.8667 115.205 33.1167 114.805 32.25C114.438 31.3833 114.255 30.4 114.255 29.3C114.255 27.8333 114.555 26.6167 115.155 25.65C115.755 24.65 116.588 23.8667 117.655 23.3C118.755 22.7 120.055 22.2833 121.555 22.05C123.088 21.7833 124.771 21.65 126.605 21.65C127.071 21.65 127.521 21.65 127.955 21.65C128.421 21.65 128.888 21.6833 129.355 21.75C129.455 20.75 129.505 19.85 129.505 19.05C129.505 17.2167 129.138 15.9333 128.405 15.2C127.671 14.4667 126.338 14.1 124.405 14.1C123.838 14.1 123.221 14.15 122.555 14.25C121.921 14.3167 121.255 14.4333 120.555 14.6C119.888 14.7333 119.238 14.9167 118.605 15.15C118.005 15.35 117.471 15.5833 117.005 15.85L115.755 12.85ZM122.855 32.9C123.788 32.9 124.621 32.7833 125.355 32.55C126.088 32.2833 126.721 31.9667 127.255 31.6C127.788 31.2 128.221 30.7667 128.555 30.3C128.921 29.8333 129.188 29.3833 129.355 28.95V24.8C128.888 24.7667 128.405 24.75 127.905 24.75C127.438 24.7167 126.971 24.7 126.505 24.7C125.471 24.7 124.455 24.7667 123.455 24.9C122.488 25 121.621 25.2167 120.855 25.55C120.121 25.85 119.521 26.2833 119.055 26.85C118.621 27.3833 118.405 28.0667 118.405 28.9C118.405 30.0667 118.821 31.0333 119.655 31.8C120.488 32.5333 121.555 32.9 122.855 32.9Z" fill="#E5BFBC"/>
</svg>
