<svg width="121" height="36" viewBox="0 0 121 36" fill="none" xmlns="http://www.w3.org/2000/svg">
<path d="M26.85 3.7H15.95V35H11.8V3.7H0.9V-2.38419e-06H26.85V3.7ZM43.4379 33C42.4379 33.8 41.1712 34.4333 39.6379 34.9C38.1379 35.3667 36.5379 35.6 34.8379 35.6C32.9379 35.6 31.2879 35.3 29.8879 34.7C28.4879 34.0667 27.3379 33.1833 26.4379 32.05C25.5379 30.8833 24.8712 29.5 24.4379 27.9C24.0046 26.3 23.7879 24.5 23.7879 22.5C23.7879 18.2333 24.7379 14.9833 26.6379 12.75C28.5379 10.5167 31.2546 9.4 34.7879 9.4C35.9212 9.4 37.0546 9.53333 38.1879 9.8C39.3212 10.0333 40.3379 10.5 41.2379 11.2C42.1379 11.9 42.8712 12.9 43.4379 14.2C44.0046 15.4667 44.2879 17.15 44.2879 19.25C44.2879 20.35 44.1879 21.5667 43.9879 22.9H27.9379C27.9379 24.3667 28.0879 25.6667 28.3879 26.8C28.6879 27.9333 29.1546 28.9 29.7879 29.7C30.4212 30.4667 31.2379 31.0667 32.2379 31.5C33.2712 31.9 34.5212 32.1 35.9879 32.1C37.1212 32.1 38.2546 31.9 39.3879 31.5C40.5212 31.1 41.3712 30.6333 41.9379 30.1L43.4379 33ZM34.8379 12.9C32.8712 12.9 31.2879 13.4167 30.0879 14.45C28.9212 15.4833 28.2212 17.25 27.9879 19.75H40.3879C40.3879 17.2167 39.9046 15.45 38.9379 14.45C37.9712 13.4167 36.6046 12.9 34.8379 12.9ZM62.9055 13.5H55.6555C55.5555 14.9 55.4555 16.4167 55.3555 18.05C55.2555 19.65 55.1055 21.2667 54.9055 22.9C54.7055 24.5 54.4388 26.05 54.1055 27.55C53.7721 29.0167 53.3388 30.3167 52.8055 31.45C52.3055 32.5833 51.6721 33.5 50.9055 34.2C50.1721 34.8667 49.2888 35.2 48.2555 35.2C47.6221 35.2 47.0721 35.1667 46.6055 35.1C46.1388 35.0333 45.7221 34.9167 45.3555 34.75L45.9555 31.4C46.3555 31.5333 46.7888 31.6 47.2555 31.6C47.9221 31.6 48.5221 31.3167 49.0555 30.75C49.5888 30.1833 50.0555 29.1167 50.4555 27.55C50.8555 25.95 51.1888 23.75 51.4555 20.95C51.7221 18.15 51.9055 14.5 52.0055 10H66.9055V35H62.9055V13.5ZM89.652 13.5H78.602V35H74.602V10H93.652V35H89.652V13.5ZM116.96 20.2L117.11 17.1H116.96L114.91 20.3L103.66 35H101.36V10H105.36V25.25L105.21 28.2H105.41L107.36 25.1L118.61 10H120.96V35H116.96V20.2Z" fill="#0D5A7B"/>
</svg>
