<svg width="166" height="43" viewBox="0 0 166 43" fill="none" xmlns="http://www.w3.org/2000/svg">
<path d="M32.05 42.45H29.2L28.45 36H3.9L3.15 42.45H0.25V32.3H3.8C4.06667 31.9333 4.46667 31.0833 5 29.75C5.56667 28.3833 6.11667 26.45 6.65 23.95C7.21667 21.4167 7.71667 18.2667 8.15 14.5C8.58333 10.7 8.8 6.2 8.8 0.999998H27.5V32.3H32.05V42.45ZM23.35 32.3V4.7H12.7C12.6 8.36666 12.4 11.6667 12.1 14.6C11.8333 17.5333 11.5 20.1333 11.1 22.4C10.7 24.6333 10.25 26.5667 9.75 28.2C9.25 29.8333 8.73333 31.2 8.2 32.3H23.35ZM54.3754 34C53.3754 34.8 52.1087 35.4333 50.5754 35.9C49.0754 36.3667 47.4754 36.6 45.7754 36.6C43.8754 36.6 42.2254 36.3 40.8254 35.7C39.4254 35.0667 38.2754 34.1833 37.3754 33.05C36.4754 31.8833 35.8087 30.5 35.3754 28.9C34.9421 27.3 34.7254 25.5 34.7254 23.5C34.7254 19.2333 35.6754 15.9833 37.5754 13.75C39.4754 11.5167 42.1921 10.4 45.7254 10.4C46.8587 10.4 47.9921 10.5333 49.1254 10.8C50.2587 11.0333 51.2754 11.5 52.1754 12.2C53.0754 12.9 53.8087 13.9 54.3754 15.2C54.9421 16.4667 55.2254 18.15 55.2254 20.25C55.2254 21.35 55.1254 22.5667 54.9254 23.9H38.8754C38.8754 25.3667 39.0254 26.6667 39.3254 27.8C39.6254 28.9333 40.0921 29.9 40.7254 30.7C41.3587 31.4667 42.1754 32.0667 43.1754 32.5C44.2087 32.9 45.4587 33.1 46.9254 33.1C48.0587 33.1 49.1921 32.9 50.3254 32.5C51.4587 32.1 52.3087 31.6333 52.8754 31.1L54.3754 34ZM45.7754 13.9C43.8087 13.9 42.2254 14.4167 41.0254 15.45C39.8587 16.4833 39.1587 18.25 38.9254 20.75H51.3254C51.3254 18.2167 50.8421 16.45 49.8754 15.45C48.9087 14.4167 47.5421 13.9 45.7754 13.9ZM76.816 24.95H65.516V36H61.516V11H65.516V21.45H76.816V11H80.816V36H76.816V24.95ZM109.168 21.15L109.468 16.4H109.218L107.418 20.25L101.368 30.05H99.968L93.668 20.25L92.018 16.4H91.818L92.218 21.1V36H88.518V11H92.468L99.468 22.2L100.918 25.1H101.018L102.518 22.1L109.068 11H113.068V36H109.168V21.15ZM120.345 12.85C121.611 12.0833 123.078 11.5167 124.745 11.15C126.445 10.7833 128.211 10.6 130.045 10.6C131.778 10.6 133.161 10.8333 134.195 11.3C135.261 11.7667 136.061 12.3833 136.595 13.15C137.161 13.8833 137.528 14.7 137.695 15.6C137.895 16.5 137.995 17.4 137.995 18.3C137.995 20.3 137.945 22.25 137.845 24.15C137.745 26.05 137.695 27.85 137.695 29.55C137.695 30.7833 137.745 31.95 137.845 33.05C137.945 34.15 138.128 35.1667 138.395 36.1H135.445L134.395 32.6H134.145C133.845 33.0667 133.461 33.5333 132.995 34C132.561 34.4333 132.028 34.8333 131.395 35.2C130.761 35.5333 130.028 35.8167 129.195 36.05C128.361 36.2833 127.411 36.4 126.345 36.4C125.278 36.4 124.278 36.2333 123.345 35.9C122.445 35.5667 121.661 35.1 120.995 34.5C120.328 33.8667 119.795 33.1167 119.395 32.25C119.028 31.3833 118.845 30.4 118.845 29.3C118.845 27.8333 119.145 26.6167 119.745 25.65C120.345 24.65 121.178 23.8667 122.245 23.3C123.345 22.7 124.645 22.2833 126.145 22.05C127.678 21.7833 129.361 21.65 131.195 21.65C131.661 21.65 132.111 21.65 132.545 21.65C133.011 21.65 133.478 21.6833 133.945 21.75C134.045 20.75 134.095 19.85 134.095 19.05C134.095 17.2167 133.728 15.9333 132.995 15.2C132.261 14.4667 130.928 14.1 128.995 14.1C128.428 14.1 127.811 14.15 127.145 14.25C126.511 14.3167 125.845 14.4333 125.145 14.6C124.478 14.7333 123.828 14.9167 123.195 15.15C122.595 15.35 122.061 15.5833 121.595 15.85L120.345 12.85ZM127.445 32.9C128.378 32.9 129.211 32.7833 129.945 32.55C130.678 32.2833 131.311 31.9667 131.845 31.6C132.378 31.2 132.811 30.7667 133.145 30.3C133.511 29.8333 133.778 29.3833 133.945 28.95V24.8C133.478 24.7667 132.995 24.75 132.495 24.75C132.028 24.7167 131.561 24.7 131.095 24.7C130.061 24.7 129.045 24.7667 128.045 24.9C127.078 25 126.211 25.2167 125.445 25.55C124.711 25.85 124.111 26.2833 123.645 26.85C123.211 27.3833 122.995 28.0667 122.995 28.9C122.995 30.0667 123.411 31.0333 124.245 31.8C125.078 32.5333 126.145 32.9 127.445 32.9ZM161.149 21.2L161.299 18.1H161.149L159.099 21.3L147.849 36H145.549V11H149.549V26.25L149.399 29.2H149.599L151.549 26.1L162.799 11H165.149V36H161.149V21.2ZM151.299 0.899999C151.633 2.43333 152.199 3.5 152.999 4.1C153.833 4.7 154.783 5 155.849 5C156.916 5 157.866 4.68333 158.699 4.05C159.533 3.41666 160.099 2.38333 160.399 0.949998L163.399 1.9C163.099 3.83333 162.233 5.31667 160.799 6.35C159.399 7.38333 157.716 7.9 155.749 7.9C154.849 7.9 153.949 7.78333 153.049 7.55C152.183 7.31667 151.399 6.96666 150.699 6.5C149.999 6.03333 149.399 5.43333 148.899 4.7C148.399 3.96667 148.066 3.1 147.899 2.1L151.299 0.899999Z" fill="#226887"/>
</svg>
